<svg width="1019" height="1019" viewBox="0 0 1019 1019" fill="none" xmlns="http://www.w3.org/2000/svg">
<g clip-path="url(#clip0_1621_3)">
<rect width="1019" height="1019" rx="424" fill="black"/>
<path d="M120.302 355.533L242.931 347.849L340.163 548.127L344.416 547.86L415.887 337.012L538.516 329.328L561.256 692.253L464.854 698.293L451.708 488.478L448.872 488.655L381.034 700.699L322.909 704.341L229.044 501.006L226.208 501.184L239.444 712.417L143.042 718.458L120.302 355.533ZM607.951 689.327L585.21 326.403L742.572 316.542C770.217 314.81 793.664 317.077 812.915 323.343C832.284 329.601 847.178 339.224 857.599 352.21C868.138 365.189 873.984 380.894 875.139 399.323C875.976 412.673 873.785 425.027 868.566 436.384C863.466 447.733 855.891 457.459 845.843 465.561C835.788 473.544 823.82 479.394 809.939 483.11L810.161 486.654C825.792 486.268 840.217 489.337 853.435 495.863C866.646 502.27 877.431 511.616 885.792 523.901C894.145 536.068 898.858 550.717 899.931 567.847C901.175 587.695 897.083 605.682 887.657 621.81C878.348 637.93 864.461 651.016 845.996 661.069C827.531 671.121 805.126 676.972 778.781 678.623L607.951 689.327ZM701.549 604.473L747.624 601.586C764.163 600.549 776.375 596.7 784.26 590.039C792.138 583.259 795.695 573.785 794.933 561.617C794.4 553.111 791.999 546.027 787.73 540.364C783.461 534.701 777.627 530.56 770.228 527.94C762.948 525.312 754.286 524.313 744.244 524.942L696.752 527.918L701.549 604.473ZM692.933 466.958L733.336 464.427C741.961 463.886 749.495 462.05 755.941 458.918C762.387 455.787 767.281 451.566 770.625 446.257C774.08 440.822 775.574 434.383 775.108 426.94C774.405 415.717 769.851 407.403 761.448 402C753.037 396.478 742.688 394.102 730.401 394.872L688.58 397.492L692.933 466.958Z" fill="white"/>
</g>
<defs>
<clipPath id="clip0_1621_3">
<rect width="1019" height="1019" fill="white"/>
</clipPath>
</defs>
</svg>
